<!-- icon666.com - MILLIONS vector ICONS FREE --><svg id="Layer_1" enable-background="new 0 0 512 512" viewBox="0 0 512 512" xmlns="http://www.w3.org/2000/svg"><g clip-rule="evenodd" fill-rule="evenodd"><path d="m18.097 20.001v471.997c0 5.508 4.494 10.001 10.001 10.001h350.572c5.507 0 10.001-4.494 10.001-10.001v-378.91c0-2.77-.992-5.15-2.954-7.096l-93.689-93.088c-1.947-1.934-4.311-2.904-7.053-2.904h-256.877c-5.507 0-10.001 4.494-10.001 10.001z" fill="#f2f2f2" style="fill: rgb(212, 212, 212);"></path><path d="m299.099 108.921h88.693c-.489-1.063-1.182-2.04-2.076-2.927l-93.689-93.088c-.89-.885-1.867-1.568-2.927-2.049v88.064c0 5.507 4.492 10 9.999 10z" fill="#ccc"></path><path d="m94.226 417.473c-5.523 0-10-4.477-10-10s4.477-10 10-10h128.035c5.523 0 10 4.477 10 10s-4.477 10-10 10zm0-215.269c-5.523 0-10-4.477-10-10s4.477-10 10-10h218.31c5.523 0 10 4.477 10 10s-4.477 10-10 10zm0 71.758c-5.523 0-10-4.477-10-10s4.477-10 10-10h128.035c5.523 0 10 4.477 10 10s-4.477 10-10 10zm0-143.511c-5.523 0-10-4.477-10-10s4.477-10 10-10h128.035c5.523 0 10 4.477 10 10s-4.477 10-10 10zm0 215.264c-5.523 0-10-4.477-10-10s4.477-10 10-10h128.035c5.523 0 10 4.477 10 10s-4.477 10-10 10z" fill="#515151"></path><path d="m486.693 321.502c-21.613 0-32.457-26.184-17.175-41.466 2.815-2.815 2.815-7.381 0-10.196l-15.521-15.521c-2.815-2.815-7.381-2.815-10.196 0-15.281 15.282-41.465 4.437-41.465-17.175 0-3.983-3.228-7.209-7.209-7.209h-21.949c-3.981 0-7.209 3.226-7.209 7.209 0 21.64-26.165 32.476-41.466 17.175-2.815-2.815-7.381-2.815-10.196 0l-15.521 15.521c-2.815 2.815-2.815 7.381 0 10.196 15.281 15.282 4.437 41.466-17.175 41.466-3.983 0-7.209 3.228-7.209 7.209v21.949c0 3.981 3.226 7.209 7.209 7.209 21.613 0 32.457 26.184 17.175 41.466-2.815 2.815-2.815 7.38 0 10.196l15.521 15.521c2.815 2.815 7.381 2.815 10.196 0 15.282-15.282 41.466-4.438 41.466 17.176 0 3.983 3.228 7.209 7.209 7.209h21.949c3.981 0 7.209-3.226 7.209-7.209 0-21.613 26.184-32.457 41.465-17.176 2.815 2.815 7.381 2.815 10.196 0l15.521-15.521c2.815-2.815 2.815-7.381 0-10.196-15.282-15.282-4.438-41.466 17.175-41.466 3.983 0 7.209-3.228 7.209-7.209v-21.949c.001-3.98-3.226-7.209-7.209-7.209zm-102.541 65.566c-26.168 0-47.382-21.214-47.382-47.381 0-26.168 21.214-47.382 47.382-47.382s47.382 21.214 47.382 47.382c-.001 26.167-21.215 47.381-47.382 47.381z" fill="#ffd54f" style="fill: rgb(194, 46, 49);"></path></g></svg>